<svg width="164.15937499999998px" height="164px" xmlns="http://www.w3.org/2000/svg" viewBox="167.92031250000002 -125.5 164.15937499999998 401" style="background: rgb(0, 0, 0);" preserveAspectRatio="xMidYMid"><defs><linearGradient id="editing-gradient-gradient" x1="0.5782172325201155" x2="0.42178276747988447" y1="0.00615582970243117" y2="0.9938441702975689" gradientUnits="objectBoundingBox"><stop offset="0" stop-color="#f0f"></stop><stop offset="1" stop-color="#00ffff"></stop></linearGradient></defs><g><g transform="translate(203.10001468658447, 145.39999389648438)"><path d="M67.20-139.40L85.60-139.40L85.60-36.40L85.60-36.40Q85.60-19.20 75-8.90L75-8.90L75-8.90Q64.40 1.40 47 1.40L47 1.40L47 1.40Q29.40 1.40 18.80-9.10L18.80-9.10L18.80-9.10Q8.20-19.60 8.20-37.80L8.20-37.80L26.40-37.80L26.40-37.80Q26.60-27.60 31.70-21.20L31.70-21.20L31.70-21.20Q36.80-14.80 47-14.80L47-14.80L47-14.80Q57.20-14.80 62.20-20.90L62.20-20.90L62.20-20.90Q67.20-27 67.20-36.40L67.20-36.40L67.20-139.40Z" fill="url(#editing-gradient-gradient)"></path></g></g><style>text {
  font-size: 64px;
  font-family: Arial Black;
  dominant-baseline: central;
  text-anchor: middle;
}</style></svg>