<svg width="994.0783935546874px" height="242px" xmlns="http://www.w3.org/2000/svg" viewBox="-247.0391967773437 -46 994.0783935546874 242" style="background: rgb(0, 0, 0);" preserveAspectRatio="xMidYMid"><defs><linearGradient id="editing-gradient-gradient" x1="0" x2="1" y1="0.5" y2="0.5" gradientUnits="objectBoundingBox"><stop offset="0" stop-color="#f0f"></stop><stop offset="1" stop-color="#00ffff"></stop></linearGradient></defs><g><g transform="translate(-99.1599292755127, 140.16999626159668)"><path d="M-15.26 19.32L-15.26 19.32L-15.26 19.32Q-8.12 18.48-3.64 9.24L-3.64 9.24L-3.64 9.24Q0.98-0.14 5.18-21.70L5.18-21.70L18.76-92.40L49.14-92.40L35.56-21.70L35.56-21.70Q30.38 5.74 21.84 16.52L21.84 16.52L21.84 16.52Q17.36 22.12 11.69 24.36L11.69 24.36L11.69 24.36Q6.02 26.60-0.14 26.60L-0.14 26.60L-0.14 26.60Q-6.30 26.60-10.29 24.36L-10.29 24.36L-10.29 24.36Q-14.28 22.12-15.26 19.32ZM82.74 2.80L82.74 2.80L82.74 2.80Q51.94 2.80 51.94-26.18L51.94-26.18L51.94-26.18Q51.94-46.76 63.28-60.06L63.28-60.06L63.28-60.06Q75.32-74.20 96.18-74.20L96.18-74.20L96.18-74.20Q111.30-74.20 119.00-67.20L119.00-67.20L119.00-67.20Q126.70-60.20 126.70-45.50L126.70-45.50L126.70-45.50Q126.70-23.10 114.66-10.08L114.66-10.08L114.66-10.08Q102.90 2.80 82.74 2.80ZM86.38-58.10L86.38-58.10L86.38-58.10Q84.70-54.32 83.37-48.65L83.37-48.65L83.37-48.65Q82.04-42.98 80.36-34.02L80.36-34.02L80.36-34.02Q78.68-25.06 78.68-14.00L78.68-14.00L78.68-14.00Q78.68-10.36 79.87-7.98L79.87-7.98L79.87-7.98Q81.06-5.60 84.28-5.60L84.28-5.60L84.28-5.60Q87.50-5.60 89.53-7.14L89.53-7.14L89.53-7.14Q91.56-8.68 93.10-12.32L93.10-12.32L93.10-12.32Q95.90-18.76 98.14-30.73L98.14-30.73L98.14-30.73Q100.38-42.70 100.59-47.88L100.59-47.88L100.59-47.88Q100.80-53.06 100.80-56.91L100.80-56.91L100.80-56.91Q100.80-60.76 99.68-63.28L99.68-63.28L99.68-63.28Q98.56-65.80 95.41-65.80L95.41-65.80L95.41-65.80Q92.26-65.80 90.16-63.84L90.16-63.84L90.16-63.84Q88.06-61.88 86.38-58.10ZM179.90-5.88L179.90-5.88L179.90-5.88Q173.18 2.80 156.52 2.80L156.52 2.80L156.52 2.80Q147.84 2.80 141.54-2.45L141.54-2.45L141.54-2.45Q135.24-7.70 135.24-15.26L135.24-15.26L135.24-15.26Q135.24-19.46 135.66-21.56L135.66-21.56L145.04-71.40L173.46-74.20L163.24-20.16L163.24-20.16Q162.68-17.08 162.68-15.26L162.68-15.26L162.68-15.26Q162.68-7.14 167.58-7.14L167.58-7.14L167.58-7.14Q173.04-7.14 176.96-14.56L176.96-14.56L176.96-14.56Q178.22-16.94 178.78-20.02L178.78-20.02L188.72-71.40L216.30-74.20L205.94-19.60L205.94-19.60Q205.52-17.50 205.52-15.26L205.52-15.26L205.52-15.26Q205.52-13.02 206.78-10.57L206.78-10.57L206.78-10.57Q208.04-8.12 212.10-7.56L212.10-7.56L212.10-7.56Q211.26-4.20 208.32-1.96L208.32-1.96L208.32-1.96Q202.16 2.80 195.51 2.80L195.51 2.80L195.51 2.80Q188.86 2.80 184.94 0.42L184.94 0.42L184.94 0.42Q181.02-1.96 179.90-5.88ZM267.68-39.34L267.68-39.34L267.68-39.34Q272.72-48.30 272.72-57.40L272.72-57.40L272.72-57.40Q272.72-63.42 268.38-63.42L268.38-63.42L268.38-63.42Q265.02-63.42 261.52-57.68L261.52-57.68L261.52-57.68Q257.88-51.94 256.76-44.52L256.76-44.52L249.48 0L220.50 2.80L234.78-71.40L257.88-74.20L255.36-60.06L255.36-60.06Q262.22-74.20 277.62-74.20L277.62-74.20L277.62-74.20Q285.74-74.20 290.15-70L290.15-70L290.15-70Q294.56-65.80 294.56-57.19L294.56-57.19L294.56-57.19Q294.56-48.58 288.89-43.12L288.89-43.12L288.89-43.12Q283.22-37.66 273.56-37.66L273.56-37.66L273.56-37.66Q269.36-37.66 267.68-39.34ZM356.02 2.80L356.02 2.80L356.02 2.80Q339.08 2.80 339.08-10.36L339.08-10.36L339.08-10.36Q339.22-14.00 340.34-20.16L340.34-20.16L342.86-33.04L342.86-33.04Q346.64-51.24 346.64-55.30L346.64-55.30L346.64-55.30Q346.64-63.42 341.88-63.42L341.88-63.42L341.88-63.42Q333.90-63.42 329.70-42.56L329.70-42.56L321.44 0L293.30 2.80L307.86-71.54L330.82-74.20L328.58-60.48L328.58-60.48Q335.16-74.20 355.32-74.20L355.32-74.20L355.32-74.20Q365.12-74.20 369.25-70.07L369.25-70.07L369.25-70.07Q373.38-65.94 373.38-56.70L373.38-56.70L373.38-56.70Q373.38-48.02 368.90-27.72L368.90-27.72L368.90-27.72Q366.80-18.62 366.80-15.19L366.80-15.19L366.80-15.19Q366.80-11.76 368.69-9.80L368.69-9.80L368.69-9.80Q370.58-7.84 373.38-7.56L373.38-7.56L373.38-7.56Q371.98-2.80 367.15 0L367.15 0L367.15 0Q362.32 2.80 356.02 2.80ZM390.67-4.20L390.67-4.20L390.67-4.20Q387.38-7.84 385.91-13.58L385.91-13.58L385.91-13.58Q384.44-19.32 384.44-28.70L384.44-28.70L384.44-28.70Q384.44-38.08 387.66-46.62L387.66-46.62L387.66-46.62Q390.88-55.16 396.76-61.32L396.76-61.32L396.76-61.32Q408.80-74.20 428.68-74.20L428.68-74.20L428.68-74.20Q435.82-74.20 441.00-71.82L441.00-71.82L464.94-74.20L454.58-19.60L454.58-19.60Q454.16-17.92 454.16-14.84L454.16-14.84L454.16-14.84Q454.16-11.76 456.05-9.80L456.05-9.80L456.05-9.80Q457.94-7.84 460.74-7.56L460.74-7.56L460.74-7.56Q459.34-2.80 454.23 0L454.23 0L454.23 0Q449.12 2.80 443.38 2.80L443.38 2.80L443.38 2.80Q437.64 2.80 433.79 0.63L433.79 0.63L433.79 0.63Q429.94-1.54 428.82-5.18L428.82-5.18L428.82-5.18Q426.58-1.68 421.82 0.56L421.82 0.56L421.82 0.56Q417.06 2.80 410.69 2.80L410.69 2.80L410.69 2.80Q404.32 2.80 399.14 1.12L399.14 1.12L399.14 1.12Q393.96-0.56 390.67-4.20ZM420.21-61.04L420.21-61.04L420.21-61.04Q418.60-58.52 417.20-54.25L417.20-54.25L417.20-54.25Q415.80-49.98 413.49-38.57L413.49-38.57L413.49-38.57Q411.18-27.16 411.18-19.04L411.18-19.04L411.18-19.04Q411.18-10.92 412.44-8.54L412.44-8.54L412.44-8.54Q413.70-6.16 415.94-6.16L415.94-6.16L415.94-6.16Q420.42-6.16 423.71-10.43L423.71-10.43L423.71-10.43Q427.00-14.70 428.26-22.26L428.26-22.26L435.68-63.28L435.68-63.28Q432.74-65.80 429.31-65.80L429.31-65.80L429.31-65.80Q425.88-65.80 423.85-64.68L423.85-64.68L423.85-64.68Q421.82-63.56 420.21-61.04ZM505.96-7.70L505.96-7.70L505.96-7.70Q501.62 2.80 487.76 2.80L487.76 2.80L487.76 2.80Q480.76 2.80 476.28-2.10L476.28-2.10L476.28-2.10Q472.64-6.16 472.64-10.78L472.64-10.78L472.64-10.78Q472.64-21.28 477.54-44.24L477.54-44.24L487.76-98.00L516.18-100.80L502.60-29.96L502.60-29.96Q500.22-19.60 500.22-15.96L500.22-15.96L500.22-15.96Q500.22-7.98 505.96-7.70ZM551.46-7.70L551.46-7.70L551.46-7.70Q547.12 2.80 533.26 2.80L533.26 2.80L533.26 2.80Q526.12 2.80 521.64-2.10L521.64-2.10L521.64-2.10Q517.86-6.44 517.86-10.78L517.86-10.78L517.86-10.78Q517.86-22.12 523.04-44.24L523.04-44.24L528.22-71.40L556.64-74.20L548.10-29.96L548.10-29.96Q545.72-19.60 545.72-15.96L545.72-15.96L545.72-15.96Q545.72-7.98 551.46-7.70ZM530.74-90.86L530.74-90.86L530.74-90.86Q530.74-96.32 535.29-99.26L535.29-99.26L535.29-99.26Q539.84-102.20 546.42-102.20L546.42-102.20L546.42-102.20Q553-102.20 556.99-99.26L556.99-99.26L556.99-99.26Q560.98-96.32 560.98-90.86L560.98-90.86L560.98-90.86Q560.98-85.40 556.57-82.60L556.57-82.60L556.57-82.60Q552.16-79.80 545.58-79.80L545.58-79.80L545.58-79.80Q539-79.80 534.87-82.60L534.87-82.60L534.87-82.60Q530.74-85.40 530.74-90.86ZM617.96-81.20L617.96-81.20L617.96-81.20Q619.92-84.56 619.92-88.20L619.92-88.20L619.92-88.20Q619.92-94.64 616-94.64L616-94.64L616-94.64Q609.98-94.64 607.46-82.32L607.46-82.32L605.36-71.40L618.10-71.40L617.26-65.10L604.10-65.10L591.50 0L563.22 2.80L576.66-65.10L566.72-65.10L567.98-71.40L577.78-71.40L580.72-82.46L580.72-82.46Q583.24-92.68 594.02-97.44L594.02-97.44L594.02-97.44Q601.86-100.80 615.02-100.80L615.02-100.80L615.02-100.80Q628.18-100.80 634.06-97.44L634.06-97.44L634.06-97.44Q639.94-94.08 639.94-89.60L639.94-89.60L639.94-89.60Q639.94-85.12 636.44-82.32L636.44-82.32L636.44-82.32Q632.94-79.52 629.02-79.52L629.02-79.52L629.02-79.52Q621.32-79.52 617.96-81.20ZM661.36-15.82L661.36-15.82L661.36-15.82Q654.08-8.26 640.78-8.26L640.78-8.26L640.78-8.26Q624.12-8.26 620.62-20.44L620.62-20.44L620.62-20.44Q619.50-24.08 619.50-28.14L619.50-28.14L619.50-28.14Q619.50-32.20 620.34-36.40L620.34-36.40L626.92-71.40L655.34-74.20L647.64-33.46L647.64-33.46Q647.36-31.64 646.94-29.68L646.94-29.68L646.94-29.68Q646.52-27.72 646.52-25.69L646.52-25.69L646.52-25.69Q646.52-23.66 647.22-22.33L647.22-22.33L647.22-22.33Q647.92-21.00 648.90-20.16L648.90-20.16L648.90-20.16Q650.58-19.04 653.59-19.04L653.59-19.04L653.59-19.04Q656.60-19.04 659.19-22.68L659.19-22.68L659.19-22.68Q661.78-26.32 663.04-32.62L663.04-32.62L670.74-71.40L698.32-74.20L687.82-19.18L687.82-19.18Q682.64 7.70 672 18.34L672 18.34L672 18.34Q666.54 23.80 659.47 25.97L659.47 25.97L659.47 25.97Q652.40 28.14 643.30 28.14L643.30 28.14L643.30 28.14Q628.60 28.14 620.20 23.52L620.20 23.52L620.20 23.52Q611.80 18.90 611.80 11.20L611.80 11.20L611.80 11.20Q611.80 5.46 616.14 2.17L616.14 2.17L616.14 2.17Q620.48-1.12 627.20-1.12L627.20-1.12L627.20-1.12Q633.08-1.12 637.56 1.40L637.56 1.40L637.56 1.40Q640.22 2.94 641.48 4.90L641.48 4.90L641.48 4.90Q638.26 7.70 638.26 12.32L638.26 12.32L638.26 12.32Q638.26 18.48 643.86 18.48L643.86 18.48L643.86 18.48Q653.10 18.48 658.42-2.80L658.42-2.80L658.42-2.80Q659.96-9.10 661.36-15.82Z" fill="url(#editing-gradient-gradient)"></path></g></g><style>text {
  font-size: 64px;
  font-family: Arial Black;
  dominant-baseline: central;
  text-anchor: middle;
}</style></svg>